#!OML:ASF E:\motion texture\Top Level 1\Subject 1\Session 1\male.ASF
:FULLY-SPECIFIED
:DEGREES
175
root 8.53049 17.7633 4.13292 2.19975 -86.7761 4.59757
lowerback -1.75567 -2.22474 -3.08281
upperback -1.98487 -2.95383 2.38272
thorax -0.775285 -1.44255 4.14365
lowerneck -12.947 -3.15376 -5.46801
upperneck 19.4364 -3.60532 1.03372
head 8.29534 -2.08645 0.844352
rclavicle 2.60159e-014 -6.75868e-015
rhumerus -23.8656 -7.68272 -82.1626
rradius 29.2822
rwrist 9.82782
rhand -13.5607 -22.4373
rfingers 7.12502
rthumb 12.5527 -52.0402
lclavicle 2.60159e-014 -6.75868e-015
lhumerus -10.5762 -18.7499 91.72
lradius 49.9754
lwrist -13.3383
lhand -14.6501 17.5645
lfingers 7.12502
lthumb 11.5023 47.229
rfemur -32.679 0.53199 17.0988
rtibia 15.3919
rfoot -1.92918 -17.031
rtoes 2.54139
lfemur 0.5851 -4.02114 -23.9398
ltibia 12.8598
lfoot -13.3465 -2.91552
ltoes 0.900429
176
root 8.39322 17.7504 4.13298 1.23247 -86.6144 5.73089
lowerback -1.85919 -2.25389 -3.1325
upperback -2.0052 -2.9903 2.38488
thorax -0.732308 -1.46109 4.16918
lowerneck -12.8677 -3.20136 -5.49048
upperneck 19.3449 -3.70211 1.19169
head 8.2567 -2.1166 0.891701
rclavicle -3.24764e-014 2.62396e-014
rhumerus -24.1599 -8.71638 -81.7083
rradius 27.8543
rwrist 10.5234
rhand -13.542 -22.8547
rfingers 7.12502
rthumb 12.5707 -52.4565
lclavicle -3.24764e-014 2.62396e-014
lhumerus -10.9049 -18.3018 91.7364
lradius 49.9333
lwrist -13.3904
lhand -14.9222 17.4001
lfingers 7.12502
lthumb 11.2398 47.079
rfemur -32.5039 1.0398 16.8612
rtibia 13.5637
rfoot -2.60788 -16.7588
rtoes 1.19199
lfemur 0.893555 -3.94796 -23.9794
ltibia 12.8794
lfoot -13.504 -3.12092
ltoes 0.506382
177
root 8.25543 17.7376 4.13239 0.657601 -86.4588 6.46364
lowerback -1.93832 -2.27704 -3.15968
upperback -2.02476 -3.01952 2.39319
thorax -0.703616 -1.47593 4.18952
lowerneck -12.8064 -3.25527 -5.51523
upperneck 19.251 -3.80332 1.34013
head 8.22086 -2.14985 0.935477
rclavicle -1.20513e-014 -5.56597e-015
rhumerus -24.4767 -9.83365 -81.1881
rradius 26.425
rwrist 11.3595
rhand -13.4177 -23.4396
rfingers 7.12502
rthumb 12.6905 -53.034
lclavicle -1.20513e-014 -5.56597e-015
lhumerus -11.2622 -17.8373 91.766
lradius 49.8275
lwrist -13.4082
lhand -15.1758 17.2655
lfingers 7.12502
lthumb 10.9951 46.9575
rfemur -32.3944 1.45647 16.6997
rtibia 12.1022
rfoot -3.40317 -16.5363
rtoes -0.0623936
lfemur 1.18488 -3.89161 -23.9848
ltibia 12.9424
lfoot -13.6512 -3.34312
ltoes 0.0439345
178
root 8.11717 17.7252 4.1312 0.3682 -86.2993 6.89682
lowerback -1.98595 -2.29814 -3.17492
upperback -2.0409 -3.04681 2.41261
thorax -0.689191 -1.48963 4.21593
lowerneck -12.7689 -3.3164 -5.5514
upperneck 19.156 -3.90807 1.48026
head 8.18944 -2.18621 0.977591
rclavicle 1.64743e-014 -1.66979e-014
rhumerus -24.8164 -11.0658 -80.5757
rradius 24.9863
rwrist 12.3862
rhand -13.2099 -24.0242
rfingers 7.12502
rthumb 12.8908 -53.606
lclavicle 1.64743e-014 -1.66979e-014
lhumerus -11.6515 -17.3476 91.8141
lradius 49.6614
lwrist -13.4005
lhand -15.3639 17.174
lfingers 7.12502
lthumb 10.8138 46.8756
rfemur -32.3645 1.70582 16.6494
rtibia 11.0742
rfoot -4.20863 -16.3599
rtoes -1.08312
lfemur 1.46383 -3.86571 -23.9634
ltibia 13.0513
lfoot -13.7885 -3.57825
ltoes -0.470051
179
root 7.97839 17.7129 4.12953 0.241829 -86.1365 7.15662
lowerback -2.01307 -2.31637 -3.17567
upperback -2.05366 -3.07087 2.43514
thorax -0.683604 -1.50169 4.23828
lowerneck -12.7428 -3.3842 -5.59611
upperneck 19.0561 -4.01805 1.61658
head 8.15908 -2.2259 1.01908
rclavicle -9.11925e-015 -6.36111e-015
rhumerus -25.1891 -12.4479 -79.8611
rradius 23.5417
rwrist 13.63
rhand -12.9552 -24.4887
rfingers 7.12502
rthumb 13.1364 -54.0549
lclavicle -9.11925e-015 -6.36111e-015
lhumerus -12.0738 -16.8354 91.8719
lradius 49.4293
lwrist -13.3821
lhand -15.4382 17.1543
lfingers 7.12502
lthumb 10.7421 46.8596
rfemur -32.434 1.74666 16.7281
rtibia 10.5239
rfoot -4.91065 -16.2063
rtoes -1.75689
lfemur 1.72148 -3.86511 -23.9229
ltibia 13.2151
lfoot -13.9188 -3.83009
ltoes -1.03469
